# xmcd CD database file
#
# Track frame offsets:
#	150
#	26927
#	47817
#
# Disc length: 991 seconds
#
# Revision: 3
# Processed by: cddbd v1.5PL3 Copyright (c) Steve Scherf et al.
# Submitted via: CDex 1.50beta9
#
DISCID=2303dd03
DTITLE=小沢健二 - 天気読み
DYEAR=1993
DGENRE=Pop
TTITLE0=天気読み
TTITLE1=暗闇から手を伸ばせ
TTITLE2=天気読み（オリジナル･カラオケ）
EXTD=YEAR: 1993
EXTT0=
EXTT1=
EXTT2=
PLAYORDER=
